<svg version="1.1" viewBox="0 0 96 96" xmlns="http://www.w3.org/2000/svg" xmlns:xlink="http://www.w3.org/1999/xlink" id="Icons" overflow="hidden"><style>
.MsftOfcThm_Background1_Fill {
 fill:#FFFFFF; 
}
</style>
<path d=" M 4.1 44.2 L 9.6 29.8 C 9.8 29.2 10.2 28.7 10.6 28.3 L 13.5 25.4 L 12 23.8 C 11.2 23 11.2 21.6 12 20.8 L 15.1 17.7 C 15.9 16.9 17.3 16.9 18.1 17.7 L 19.7 19.2 L 28.6 10.3 C 29.4 9.5 30.8 9.5 31.6 10.3 L 41.3 20.1 C 42.1 20.9 42.1 22.3 41.3 23.1 L 32.7 31.8 L 82.5 79.4 C 83.3 80.2 83.3 81.6 82.5 82.4 L 76.6 88.3 C 75.8 89.1 74.4 89.1 73.6 88.3 L 26 38.5 L 23.5 41 C 23 41.5 22.4 41.8 21.8 42 L 6.8 46.9 C 6 47.1 5.2 46.9 4.6 46.3 C 4 45.8 3.8 44.9 4.1 44.2 Z" stroke="none" stroke-width="1" stroke-linecap="butt" stroke-dasharray="" stroke-dashoffset="1" fill="#FFFFFF" fill-opacity="1"/><path d=" M 64.1 28.4 L 51.1 19.8 C 50.6 19.4 50.3 18.9 50.2 18.3 C 50.2 17.7 50.4 17.1 50.8 16.6 L 59.8 7.7 C 60.5 7 61.7 6.9 62.5 7.5 L 77.8 17.7 C 77.9 17.7 78 17.8 78 17.9 L 78.1 18 L 81 20.9 L 81.2 21.1 L 81.3 21.2 L 81.3 21.3 L 91.6 36.3 C 92.2 37.1 92.1 38.3 91.4 39 L 82.4 47.9 C 82 48.3 81.3 48.6 80.7 48.5 C 80.1 48.4 79.5 48.1 79.1 47.6 L 70.7 35 L 57.1 49.2 L 49.7 42.1 L 64.1 28.4 Z" stroke="none" stroke-width="1" stroke-linecap="butt" stroke-dasharray="" stroke-dashoffset="1" fill="#FFFFFF" fill-opacity="1"/><path d=" M 19.7 88.3 C 18.9 89.1 17.5 89.1 16.7 88.3 L 10.7 82.3 C 9.9 81.5 9.9 80.1 10.7 79.3 L 36 55.2 L 43.7 63.2 L 19.7 88.3 Z" stroke="none" stroke-width="1" stroke-linecap="butt" stroke-dasharray="" stroke-dashoffset="1" fill="#FFFFFF" fill-opacity="1"/></svg>